<svg width="44" height="44" viewBox="0 0 44 44" fill="none" xmlns="http://www.w3.org/2000/svg">
<g clip-path="url(#clip0_40_580)">
<path d="M22 0C9.83125 0 0 9.83125 0 22C0 34.1688 9.83125 44 22 44C34.1688 44 44 34.1688 44 22C44 9.83125 34.1688 0 22 0ZM22 39.875C19.7313 39.875 17.875 38.0187 17.875 35.75C17.875 33.4813 19.7313 31.625 22 31.625C24.2687 31.625 26.125 33.4813 26.125 35.75C26.125 38.0187 24.2687 39.875 22 39.875ZM26.125 27.5H17.875V8.25H26.125V27.5Z" fill="#F59E0B"/>
</g>
<defs>
<clipPath id="clip0_40_580">
<rect width="44" height="44" fill="white"/>
</clipPath>
</defs>
</svg>
